STARTFONT 2.1
FONT -FontForge-Henny Penny-Book-R-Normal--18-180-72-72-P-102-ISO10646-1
SIZE 18 72 72
FONTBOUNDINGBOX 25 33 -3 -12
COMMENT "Generated by fontforge, http://fontforge.sourceforge.net"
COMMENT "Copyright (c) 2012, Brownfox (gayaneh.b@gmail.com), with Reserved Font Name "Henny Penny""
STARTPROPERTIES 39
FOUNDRY "FontForge"
FAMILY_NAME "Henny Penny"
WEIGHT_NAME "Book"
SLANT "R"
SETWIDTH_NAME "Normal"
ADD_STYLE_NAME ""
PIXEL_SIZE 18
POINT_SIZE 180
RESOLUTION_X 72
RESOLUTION_Y 72
SPACING "P"
AVERAGE_WIDTH 102
CHARSET_REGISTRY "ISO10646"
CHARSET_ENCODING "1"
FONTNAME_REGISTRY ""
CHARSET_COLLECTIONS "ISO10646-1"
FONT_NAME "HennyPenny-Regular"
FACE_NAME "Henny Penny"
COPYRIGHT "Copyright (c) 2012, Brownfox (gayaneh.b@gmail.com), with Reserved Font Name "Henny Penny""
FONT_VERSION "1.001"
FONT_ASCENT 14
FONT_DESCENT 4
UNDERLINE_POSITION -2
UNDERLINE_THICKNESS 1
X_HEIGHT 10
CAP_HEIGHT 13
RAW_ASCENT 799
RAW_DESCENT 200
NORM_SPACE 5
RELATIVE_WEIGHT 40
RELATIVE_SETWIDTH 50
SUPERSCRIPT_X 0
SUPERSCRIPT_Y 6
SUPERSCRIPT_SIZE 10
SUBSCRIPT_X 0
SUBSCRIPT_Y 1
SUBSCRIPT_SIZE 10
AVG_LOWERCASE_WIDTH 91
AVG_UPPERCASE_WIDTH 127
ENDPROPERTIES
CHARS 233
STARTCHAR space
ENCODING 32
SWIDTH 270 0
DWIDTH 5 0
BBX 1 1 0 0
BITMAP
00
ENDCHAR
STARTCHAR exclam
ENCODING 33
SWIDTH 249 0
DWIDTH 4 0
BBX 3 18 1 -1
BITMAP
C0
C0
E0
E0
C0
C0
40
40
40
40
40
40
40
00
00
00
C0
C0
ENDCHAR
STARTCHAR quotedbl
ENCODING 34
SWIDTH 292 0
DWIDTH 5 0
BBX 3 6 1 9
BITMAP
A0
A0
A0
A0
A0
A0
ENDCHAR
STARTCHAR numbersign
ENCODING 35
SWIDTH 1030 0
DWIDTH 19 0
BBX 17 21 1 -6
BITMAP
008000
00C000
008000
009000
012000
012000
FFF000
024F80
048000
048000
053C00
FFC000
090000
120000
120000
340000
240000
080000
080000
080000
100000
ENDCHAR
STARTCHAR dollar
ENCODING 36
SWIDTH 799 0
DWIDTH 14 0
BBX 10 20 2 -4
BITMAP
0200
0240
0FC0
1AC0
3A80
3A80
3C80
1C00
0E00
0F00
0780
0B80
4980
4980
4880
5180
F180
9E00
1000
1000
ENDCHAR
STARTCHAR percent
ENCODING 37
SWIDTH 789 0
DWIDTH 14 0
BBX 14 17 0 0
BITMAP
3C10
6610
6220
6220
6240
3C80
0100
0100
0200
0470
0888
098C
118C
218C
2198
40F0
8000
ENDCHAR
STARTCHAR ampersand
ENCODING 38
SWIDTH 773 0
DWIDTH 14 0
BBX 13 18 1 -2
BITMAP
0E00
1300
2300
2200
2600
3C00
3820
3070
7BB0
7820
CC20
C620
C740
E3C0
71C8
3EE8
0070
0030
ENDCHAR
STARTCHAR quotesingle
ENCODING 39
SWIDTH 174 0
DWIDTH 3 0
BBX 1 6 1 8
BITMAP
80
80
80
80
80
80
ENDCHAR
STARTCHAR parenleft
ENCODING 40
SWIDTH 431 0
DWIDTH 8 0
BBX 8 25 0 -7
BITMAP
10
10
20
20
60
40
40
C0
C0
C0
C0
C0
C0
C0
C0
C0
60
60
60
30
30
18
0C
04
03
ENDCHAR
STARTCHAR parenright
ENCODING 41
SWIDTH 443 0
DWIDTH 8 0
BBX 8 17 0 -4
BITMAP
70
18
0C
06
06
03
03
03
03
03
03
06
06
04
08
10
E0
ENDCHAR
STARTCHAR asterisk
ENCODING 42
SWIDTH 490 0
DWIDTH 9 0
BBX 7 8 1 9
BITMAP
20
10
12
14
E8
18
24
46
ENDCHAR
STARTCHAR plus
ENCODING 43
SWIDTH 440 0
DWIDTH 8 0
BBX 6 9 1 1
BITMAP
10
10
10
10
FC
10
10
10
10
ENDCHAR
STARTCHAR comma
ENCODING 44
SWIDTH 251 0
DWIDTH 5 0
BBX 3 6 1 -3
BITMAP
E0
E0
60
60
40
80
ENDCHAR
STARTCHAR hyphen
ENCODING 45
SWIDTH 436 0
DWIDTH 8 0
BBX 6 1 1 3
BITMAP
FC
ENDCHAR
STARTCHAR period
ENCODING 46
SWIDTH 238 0
DWIDTH 4 0
BBX 3 3 1 -1
BITMAP
E0
E0
E0
ENDCHAR
STARTCHAR slash
ENCODING 47
SWIDTH 690 0
DWIDTH 12 0
BBX 12 17 0 0
BITMAP
0010
0010
0020
0040
0040
0080
0100
0100
0200
0400
0800
0800
1000
2000
2000
4000
8000
ENDCHAR
STARTCHAR zero
ENCODING 48
SWIDTH 723 0
DWIDTH 13 0
BBX 13 13 0 1
BITMAP
0F80
3060
6030
4030
C018
C018
C018
C018
C018
6018
7030
3860
0F80
ENDCHAR
STARTCHAR one
ENCODING 49
SWIDTH 505 0
DWIDTH 9 0
BBX 9 17 0 -1
BITMAP
1000
1000
1800
3800
7800
9800
1800
0800
0C00
0C00
0C00
0C00
0C00
0E00
1F00
3080
4000
ENDCHAR
STARTCHAR two
ENCODING 50
SWIDTH 534 0
DWIDTH 10 0
BBX 10 16 0 -1
BITMAP
3E00
4700
8300
8300
8300
8300
0600
0600
0C00
1800
3000
6000
A040
1C80
0700
0300
ENDCHAR
STARTCHAR three
ENCODING 51
SWIDTH 511 0
DWIDTH 9 0
BBX 9 15 0 -1
BITMAP
8000
7E00
4200
4400
8800
0800
1C00
0300
0180
8180
8180
8180
4380
7F00
1E00
ENDCHAR
STARTCHAR four
ENCODING 52
SWIDTH 712 0
DWIDTH 13 0
BBX 13 17 0 -2
BITMAP
0100
0300
0600
0B00
1300
2300
4300
4100
E180
1D80
07D0
01E0
0180
00C0
00C0
03E0
0018
ENDCHAR
STARTCHAR five
ENCODING 53
SWIDTH 757 0
DWIDTH 14 0
BBX 14 17 0 -2
BITMAP
0184
01E8
0278
0438
0410
0800
0F80
01C0
00E0
4060
8060
8060
8060
8060
40C0
2180
1F00
ENDCHAR
STARTCHAR six
ENCODING 54
SWIDTH 598 0
DWIDTH 11 0
BBX 11 14 0 0
BITMAP
0F80
3040
6020
6000
EF00
F1C0
E0C0
E060
C060
C060
6040
60C0
3080
0F00
ENDCHAR
STARTCHAR seven
ENCODING 55
SWIDTH 507 0
DWIDTH 9 0
BBX 9 14 0 -1
BITMAP
0080
FF00
8700
8200
8200
8400
0400
0C00
0800
0800
1800
1800
3800
3800
ENDCHAR
STARTCHAR eight
ENCODING 56
SWIDTH 476 0
DWIDTH 9 0
BBX 8 15 0 -1
BITMAP
1C
32
62
62
72
3C
3C
3E
43
43
81
81
41
63
3C
ENDCHAR
STARTCHAR nine
ENCODING 57
SWIDTH 601 0
DWIDTH 11 0
BBX 11 14 0 0
BITMAP
3E00
6380
C1C0
C0C0
C0C0
C0E0
C0E0
71E0
3EC0
00C0
01C0
0180
4300
3E00
ENDCHAR
STARTCHAR colon
ENCODING 58
SWIDTH 246 0
DWIDTH 4 0
BBX 3 10 1 -1
BITMAP
E0
E0
E0
00
00
00
00
C0
C0
C0
ENDCHAR
STARTCHAR semicolon
ENCODING 59
SWIDTH 266 0
DWIDTH 5 0
BBX 3 11 1 -3
BITMAP
E0
E0
E0
00
00
00
E0
E0
60
40
80
ENDCHAR
STARTCHAR less
ENCODING 60
SWIDTH 522 0
DWIDTH 9 0
BBX 8 9 1 1
BITMAP
02
04
08
30
C0
60
18
04
03
ENDCHAR
STARTCHAR equal
ENCODING 61
SWIDTH 655 0
DWIDTH 12 0
BBX 10 4 1 3
BITMAP
07C0
F800
0000
FF80
ENDCHAR
STARTCHAR greater
ENCODING 62
SWIDTH 533 0
DWIDTH 10 0
BBX 7 9 1 1
BITMAP
80
60
10
0C
02
06
08
10
60
ENDCHAR
STARTCHAR question
ENCODING 63
SWIDTH 564 0
DWIDTH 10 0
BBX 9 17 0 -2
BITMAP
3E00
6380
C180
C180
E180
E180
7380
0700
0C00
1800
2000
4000
4000
3000
0000
3000
3000
ENDCHAR
STARTCHAR at
ENCODING 64
SWIDTH 898 0
DWIDTH 16 0
BBX 15 18 1 -5
BITMAP
07E0
0C18
300C
2004
4066
47E2
8CE2
9862
9862
9862
9862
9864
8CA4
4798
40C0
21C0
10C0
0F80
ENDCHAR
STARTCHAR A
ENCODING 65
SWIDTH 784 0
DWIDTH 14 0
BBX 14 17 0 -2
BITMAP
0300
1F00
0300
0580
0580
0980
08C0
08C0
0FE0
10E0
1060
1070
2070
E030
1838
003C
00C0
ENDCHAR
STARTCHAR B
ENCODING 66
SWIDTH 685 0
DWIDTH 12 0
BBX 12 18 0 -3
BITMAP
0F80
F1C0
10E0
10C0
18C0
1880
1900
1FC0
1860
1870
1830
1830
1830
1870
1C60
3F80
4000
8000
ENDCHAR
STARTCHAR C
ENCODING 67
SWIDTH 742 0
DWIDTH 13 0
BBX 13 18 0 -2
BITMAP
0010
0010
0010
0FF0
3830
7010
6010
E008
E000
E000
E000
E008
E008
E008
7008
3810
1C20
0FC0
ENDCHAR
STARTCHAR D
ENCODING 68
SWIDTH 726 0
DWIDTH 13 0
BBX 13 15 0 -3
BITMAP
7FC0
3870
1830
1838
1818
1818
1818
1838
1838
1830
1C60
1F80
3800
2000
C000
ENDCHAR
STARTCHAR E
ENCODING 69
SWIDTH 557 0
DWIDTH 10 0
BBX 10 17 0 -2
BITMAP
0780
F880
7080
7000
3000
3000
3400
3C00
3400
3400
3000
3000
3040
1040
1080
FF80
0100
ENDCHAR
STARTCHAR F
ENCODING 70
SWIDTH 533 0
DWIDTH 10 0
BBX 10 16 0 -1
BITMAP
01C0
1E80
F080
3080
3080
3200
3200
1E00
1A00
1A00
1A00
1800
1800
1800
1800
FC00
ENDCHAR
STARTCHAR G
ENCODING 71
SWIDTH 750 0
DWIDTH 14 0
BBX 14 13 0 0
BITMAP
000C
0F88
3870
7030
6020
E020
E018
E3F0
E030
E030
6030
3850
1F80
ENDCHAR
STARTCHAR H
ENCODING 72
SWIDTH 743 0
DWIDTH 13 0
BBX 13 18 0 -2
BITMAP
8000
7E00
3018
31E0
3060
3060
3060
3060
3060
3FE0
3060
3060
3060
3020
3020
3060
31F8
F800
ENDCHAR
STARTCHAR I
ENCODING 73
SWIDTH 438 0
DWIDTH 8 0
BBX 9 18 0 -3
BITMAP
FF80
3C00
1C00
1800
1800
1800
1800
1800
1800
1800
1800
1800
1000
1000
1000
1800
3E00
C000
ENDCHAR
STARTCHAR J
ENCODING 74
SWIDTH 628 0
DWIDTH 11 0
BBX 12 21 0 -5
BITMAP
00F0
0FC0
0380
0380
0180
0180
0180
0180
0180
0180
0180
0180
0100
0100
0100
0300
7300
F200
F600
8C00
7800
ENDCHAR
STARTCHAR K
ENCODING 75
SWIDTH 866 0
DWIDTH 16 0
BBX 16 17 0 -1
BITMAP
0480
F878
3840
3880
3900
1900
1B00
1F00
1B80
1982
19C1
18E1
1871
183F
181E
3C00
0200
ENDCHAR
STARTCHAR L
ENCODING 76
SWIDTH 660 0
DWIDTH 12 0
BBX 11 13 0 1
BITMAP
8000
7F00
1C00
1C00
1800
1800
1800
1840
1840
1840
1820
1860
7FE0
ENDCHAR
STARTCHAR M
ENCODING 77
SWIDTH 1089 0
DWIDTH 20 0
BBX 20 14 0 -1
BITMAP
0001C0
000300
1E0300
0B0700
078B00
058B00
05D300
04F100
04E180
086180
084180
C801C0
F001F0
E00600
ENDCHAR
STARTCHAR N
ENCODING 78
SWIDTH 799 0
DWIDTH 14 0
BBX 15 17 0 -4
BITMAP
F83E
1C08
1E08
1708
1388
13C8
11E8
10F0
1070
1030
1010
1010
1000
1000
3000
F800
0400
ENDCHAR
STARTCHAR O
ENCODING 79
SWIDTH 747 0
DWIDTH 13 0
BBX 13 13 0 0
BITMAP
0F80
30E0
6070
6038
C038
C038
C018
C018
E018
6038
7030
3860
0F80
ENDCHAR
STARTCHAR P
ENCODING 80
SWIDTH 623 0
DWIDTH 11 0
BBX 11 16 0 -3
BITMAP
FF80
38C0
1860
1860
1860
18C0
18C0
1F80
1800
1800
1800
1800
1800
3800
7C00
8300
ENDCHAR
STARTCHAR Q
ENCODING 81
SWIDTH 804 0
DWIDTH 14 0
BBX 21 22 0 -8
BITMAP
0FC000
107000
203800
601800
401C00
C00C00
C00C00
C00C00
C00C00
E0EC00
E13C00
621800
321800
1E3800
0FDC00
000C00
000C00
000E08
000E10
000710
0007F0
0003E0
ENDCHAR
STARTCHAR R
ENCODING 82
SWIDTH 869 0
DWIDTH 16 0
BBX 16 14 0 -1
BITMAP
FF80
38C0
38C0
38E0
10C0
11C0
1FC0
1B00
1980
1981
19C1
18E1
FC7E
023E
ENDCHAR
STARTCHAR S
ENCODING 83
SWIDTH 517 0
DWIDTH 9 0
BBX 9 17 0 -2
BITMAP
0080
0E80
3100
3100
3100
3000
1800
1C00
0E00
0700
8300
8380
8180
8180
C180
E300
9E00
ENDCHAR
STARTCHAR T
ENCODING 84
SWIDTH 659 0
DWIDTH 12 0
BBX 12 19 1 -3
BITMAP
C000
FFF0
8230
8220
8620
8620
8600
0600
0600
0600
0600
0600
0600
0600
0600
0700
0FC0
1800
2000
ENDCHAR
STARTCHAR U
ENCODING 85
SWIDTH 690 0
DWIDTH 12 0
BBX 13 14 0 1
BITMAP
0200
1E00
F800
39F8
3860
3820
3020
3020
3820
3820
3840
1840
0C40
0780
ENDCHAR
STARTCHAR V
ENCODING 86
SWIDTH 798 0
DWIDTH 14 0
BBX 16 14 0 0
BITMAP
0300
FC00
1C03
0C0E
0E7C
0608
0710
0310
03A0
01A0
01C0
00C0
00C0
0080
ENDCHAR
STARTCHAR W
ENCODING 87
SWIDTH 1120 0
DWIDTH 20 0
BBX 23 16 -1 -2
BITMAP
000040
00003E
000018
040010
080010
380020
DC2020
0C3040
0C5840
0E9880
069C80
070F00
070F00
020600
020600
000200
ENDCHAR
STARTCHAR X
ENCODING 88
SWIDTH 868 0
DWIDTH 16 0
BBX 16 14 0 0
BITMAP
0100
FE10
1E0E
0708
0310
03A0
01E0
01C0
01E0
0260
0430
0C18
7C18
06FF
ENDCHAR
STARTCHAR Y
ENCODING 89
SWIDTH 796 0
DWIDTH 14 0
BBX 16 18 0 -2
BITMAP
0400
F810
380F
1C08
0C10
0620
03C0
0380
0180
0180
0180
0180
0180
0180
0180
0380
0FC0
0020
ENDCHAR
STARTCHAR Z
ENCODING 90
SWIDTH 627 0
DWIDTH 11 0
BBX 11 15 1 -2
BITMAP
8000
FF00
8E00
8E00
8C00
1C00
1800
1800
1880
3040
3040
3040
60C0
67E0
7800
ENDCHAR
STARTCHAR bracketleft
ENCODING 91
SWIDTH 344 0
DWIDTH 6 0
BBX 6 19 0 -4
BITMAP
38
64
60
60
60
40
40
40
C0
C0
C0
C0
C0
C0
C0
C0
C0
E0
FC
ENDCHAR
STARTCHAR backslash
ENCODING 92
SWIDTH 347 0
DWIDTH 6 0
BBX 6 19 0 -2
BITMAP
80
80
80
40
40
40
20
20
20
20
10
10
10
08
08
08
08
04
04
ENDCHAR
STARTCHAR bracketright
ENCODING 93
SWIDTH 334 0
DWIDTH 6 0
BBX 6 16 0 -4
BITMAP
70
18
18
18
18
18
18
18
18
18
18
18
18
1C
30
C0
ENDCHAR
STARTCHAR asciicircum
ENCODING 94
SWIDTH 658 0
DWIDTH 12 0
BBX 10 4 1 10
BITMAP
0800
1C00
7F00
C1C0
ENDCHAR
STARTCHAR underscore
ENCODING 95
SWIDTH 678 0
DWIDTH 12 0
BBX 10 1 1 -5
BITMAP
FFC0
ENDCHAR
STARTCHAR grave
ENCODING 96
SWIDTH 278 0
DWIDTH 5 0
BBX 3 4 1 14
BITMAP
80
C0
60
20
ENDCHAR
STARTCHAR a
ENCODING 97
SWIDTH 527 0
DWIDTH 10 0
BBX 10 12 0 -1
BITMAP
3800
4C00
4600
6600
6600
0600
7E00
C700
C300
FF40
7340
01C0
ENDCHAR
STARTCHAR b
ENCODING 98
SWIDTH 582 0
DWIDTH 10 0
BBX 11 20 -1 0
BITMAP
1000
1000
3000
F000
3000
3000
1000
1000
1000
1000
1000
13C0
1CE0
1860
1860
1860
1860
1CE0
3F80
6000
ENDCHAR
STARTCHAR c
ENCODING 99
SWIDTH 437 0
DWIDTH 8 0
BBX 7 10 0 1
BITMAP
3C
4E
4E
C0
80
C2
C2
C2
62
3C
ENDCHAR
STARTCHAR d
ENCODING 100
SWIDTH 523 0
DWIDTH 9 0
BBX 9 17 0 1
BITMAP
0300
0F00
0300
0300
0300
0300
0300
0300
0300
0300
3F00
E300
C300
C300
C300
E300
7F80
ENDCHAR
STARTCHAR e
ENCODING 101
SWIDTH 434 0
DWIDTH 8 0
BBX 7 10 0 1
BITMAP
1C
66
42
C2
C6
FC
C2
C2
62
3C
ENDCHAR
STARTCHAR f
ENCODING 102
SWIDTH 299 0
DWIDTH 5 0
BBX 10 23 -1 -3
BITMAP
0380
0480
08C0
09C0
0B80
1B80
1800
1800
FF00
1800
1800
1800
1800
1800
1800
1800
1800
1800
1800
1800
1800
1E00
6000
ENDCHAR
STARTCHAR g
ENCODING 103
SWIDTH 567 0
DWIDTH 10 0
BBX 11 17 0 -7
BITMAP
00E0
0360
3E60
7300
6180
6180
7300
3E00
2000
1F00
3180
60C0
C0C0
C0C0
E080
7180
3E00
ENDCHAR
STARTCHAR h
ENCODING 104
SWIDTH 566 0
DWIDTH 10 0
BBX 11 19 -1 0
BITMAP
0800
3800
F800
1000
1000
1000
1000
1000
1000
1000
1000
3700
3980
3180
3180
3180
3180
3180
FBE0
ENDCHAR
STARTCHAR i
ENCODING 105
SWIDTH 301 0
DWIDTH 5 0
BBX 4 13 1 2
BITMAP
60
60
00
20
E0
60
60
60
60
60
60
60
F0
ENDCHAR
STARTCHAR j
ENCODING 106
SWIDTH 367 0
DWIDTH 7 0
BBX 9 20 -2 -9
BITMAP
0600
0600
0000
1F00
0700
0300
0300
0300
0180
0180
0180
0180
0100
0100
7100
7100
C100
8200
4600
3800
ENDCHAR
STARTCHAR k
ENCODING 107
SWIDTH 567 0
DWIDTH 10 0
BBX 11 20 -1 -2
BITMAP
1000
3000
F000
1000
1000
1000
1000
1000
1200
11C0
1100
1200
1C00
1E40
1E20
1A20
1B20
19C0
1800
7F00
ENDCHAR
STARTCHAR l
ENCODING 108
SWIDTH 354 0
DWIDTH 6 0
BBX 7 16 -1 0
BITMAP
08
18
38
D8
18
18
18
18
08
08
08
0C
0C
0C
0C
3E
ENDCHAR
STARTCHAR m
ENCODING 109
SWIDTH 708 0
DWIDTH 13 0
BBX 12 8 0 2
BITMAP
2000
EEE0
3760
2260
2660
2F60
F0E0
0810
ENDCHAR
STARTCHAR n
ENCODING 110
SWIDTH 584 0
DWIDTH 11 0
BBX 11 12 0 0
BITMAP
2000
7380
BDC0
38C0
30C0
10C0
10C0
10C0
1080
1B80
7CC0
0060
ENDCHAR
STARTCHAR o
ENCODING 111
SWIDTH 503 0
DWIDTH 9 0
BBX 9 8 0 1
BITMAP
3E00
6300
C180
C180
C180
E180
6300
3E00
ENDCHAR
STARTCHAR p
ENCODING 112
SWIDTH 509 0
DWIDTH 9 0
BBX 9 17 0 -7
BITMAP
1000
3F00
F300
3180
2180
2180
3100
3300
3E00
3000
3000
3000
3000
3000
3000
7000
FC00
ENDCHAR
STARTCHAR q
ENCODING 113
SWIDTH 505 0
DWIDTH 9 0
BBX 8 16 1 -7
BITMAP
7F
C6
C6
C6
C6
7E
06
06
06
06
06
06
06
06
3E
03
ENDCHAR
STARTCHAR r
ENCODING 114
SWIDTH 414 0
DWIDTH 7 0
BBX 8 12 0 0
BITMAP
07
29
F3
73
30
30
30
30
30
30
3C
C0
ENDCHAR
STARTCHAR s
ENCODING 115
SWIDTH 482 0
DWIDTH 9 0
BBX 9 14 0 -2
BITMAP
0100
0F00
1100
1100
1100
1800
0E00
0700
2300
2180
2180
6180
9300
0E00
ENDCHAR
STARTCHAR t
ENCODING 116
SWIDTH 434 0
DWIDTH 8 0
BBX 7 14 0 0
BITMAP
08
08
18
30
FC
30
30
60
60
60
62
62
32
1C
ENDCHAR
STARTCHAR u
ENCODING 117
SWIDTH 744 0
DWIDTH 13 0
BBX 13 10 1 0
BITMAP
0040
23C0
60C0
F0C0
30C0
30C0
30C0
3978
1F00
0E00
ENDCHAR
STARTCHAR v
ENCODING 118
SWIDTH 600 0
DWIDTH 11 0
BBX 11 11 0 0
BITMAP
0800
7000
B9E0
1880
1880
0D00
0D00
0D00
0600
0600
0200
ENDCHAR
STARTCHAR w
ENCODING 119
SWIDTH 745 0
DWIDTH 13 0
BBX 13 9 0 0
BITMAP
0838
3110
F1A0
33A0
3DE0
1CC0
1C40
1800
0800
ENDCHAR
STARTCHAR x
ENCODING 120
SWIDTH 548 0
DWIDTH 10 0
BBX 10 11 0 0
BITMAP
0C00
F800
3BC0
1900
1E00
0C00
0C00
0E00
1600
7380
0C40
ENDCHAR
STARTCHAR y
ENCODING 121
SWIDTH 659 0
DWIDTH 12 0
BBX 11 17 1 -8
BITMAP
1800
73E0
E0C0
60C0
60C0
60C0
30C0
33C0
1E80
0080
0080
0080
3900
5900
5B00
4600
3C00
ENDCHAR
STARTCHAR z
ENCODING 122
SWIDTH 460 0
DWIDTH 8 0
BBX 8 10 0 1
BITMAP
60
7E
86
8C
0C
18
18
31
71
FF
ENDCHAR
STARTCHAR braceleft
ENCODING 123
SWIDTH 460 0
DWIDTH 8 0
BBX 8 23 0 -6
BITMAP
0E
19
18
18
18
18
18
18
18
18
70
C0
20
10
18
18
18
18
18
18
19
19
0E
ENDCHAR
STARTCHAR bar
ENCODING 124
SWIDTH 368 0
DWIDTH 7 0
BBX 1 19 3 -3
BITMAP
80
80
80
80
80
80
80
80
80
80
80
80
80
80
80
80
80
80
80
ENDCHAR
STARTCHAR braceright
ENCODING 125
SWIDTH 476 0
DWIDTH 9 0
BBX 8 19 0 -5
BITMAP
70
98
98
18
18
18
0C
07
06
06
06
06
07
03
03
03
03
06
18
ENDCHAR
STARTCHAR asciitilde
ENCODING 126
SWIDTH 733 0
DWIDTH 13 0
BBX 11 4 1 3
BITMAP
0020
3C20
CFC0
8380
ENDCHAR
STARTCHAR nonbreakingspace
ENCODING 160
SWIDTH 270 0
DWIDTH 5 0
BBX 1 1 0 0
BITMAP
00
ENDCHAR
STARTCHAR exclamdown
ENCODING 161
SWIDTH 247 0
DWIDTH 4 0
BBX 3 19 1 -2
BITMAP
C0
C0
00
00
80
40
40
40
40
40
40
40
C0
E0
E0
E0
E0
E0
C0
ENDCHAR
STARTCHAR cent
ENCODING 162
SWIDTH 799 0
DWIDTH 14 0
BBX 8 15 3 -4
BITMAP
20
20
1E
33
71
D3
D3
C8
C9
E9
66
3C
04
04
02
ENDCHAR
STARTCHAR sterling
ENCODING 163
SWIDTH 799 0
DWIDTH 14 0
BBX 11 16 2 -2
BITMAP
0F00
1180
3180
3380
3300
3000
3000
3A00
DC00
1C00
0C00
0C00
0C40
7C40
8E60
79C0
ENDCHAR
STARTCHAR currency
ENCODING 164
SWIDTH 732 0
DWIDTH 13 0
BBX 11 13 1 0
BITMAP
0100
0200
BE00
4100
8080
8080
8080
8100
4300
7D00
40C0
4020
8000
ENDCHAR
STARTCHAR yen
ENCODING 165
SWIDTH 799 0
DWIDTH 14 0
BBX 13 19 1 -2
BITMAP
0400
F818
38E0
1C40
1C40
0E80
0680
0700
0700
0300
1FF8
0300
03E0
1F00
0300
0300
0300
07C0
1800
ENDCHAR
STARTCHAR brokenbar
ENCODING 166
SWIDTH 341 0
DWIDTH 6 0
BBX 1 21 3 -5
BITMAP
80
80
80
80
80
80
80
80
00
00
80
80
80
80
80
80
80
80
80
80
80
ENDCHAR
STARTCHAR section
ENCODING 167
SWIDTH 546 0
DWIDTH 10 0
BBX 8 21 1 -6
BITMAP
1E
23
63
63
60
70
38
5E
C6
C3
C1
71
3A
1C
06
02
01
01
32
32
3C
ENDCHAR
STARTCHAR dieresis
ENCODING 168
SWIDTH 393 0
DWIDTH 7 0
BBX 5 2 2 12
BITMAP
D8
D8
ENDCHAR
STARTCHAR copyright
ENCODING 169
SWIDTH 1023 0
DWIDTH 18 0
BBX 17 16 1 -3
BITMAP
07F000
1C0C00
304200
63C100
444100
CC4080
8C0080
8C2080
8C2080
864080
838100
400100
400300
200600
181800
07E000
ENDCHAR
STARTCHAR ordfeminine
ENCODING 170
SWIDTH 558 0
DWIDTH 10 0
BBX 8 9 1 6
BITMAP
70
98
C8
C8
78
C9
8D
CD
76
ENDCHAR
STARTCHAR guillemotleft
ENCODING 171
SWIDTH 608 0
DWIDTH 11 0
BBX 9 15 1 -4
BITMAP
0080
0480
0500
0900
1900
3300
6600
E700
7300
3180
1980
0880
0480
0480
0200
ENDCHAR
STARTCHAR logicalnot
ENCODING 172
SWIDTH 616 0
DWIDTH 11 0
BBX 9 4 1 4
BITMAP
FF80
0080
0080
0080
ENDCHAR
STARTCHAR uni00AD
ENCODING 173
SWIDTH 436 0
DWIDTH 8 0
BBX 6 1 1 3
BITMAP
FC
ENDCHAR
STARTCHAR registered
ENCODING 174
SWIDTH 1048 0
DWIDTH 19 0
BBX 17 17 1 -4
BITMAP
03F000
1C0C00
300600
600100
5FC100
846080
846080
846080
84C080
878880
858880
C6C980
5F7100
608300
300600
1C0C00
07F000
ENDCHAR
STARTCHAR macron
ENCODING 175
SWIDTH 382 0
DWIDTH 7 0
BBX 5 1 1 14
BITMAP
F8
ENDCHAR
STARTCHAR degree
ENCODING 176
SWIDTH 346 0
DWIDTH 6 0
BBX 5 4 1 13
BITMAP
70
88
88
70
ENDCHAR
STARTCHAR plusminus
ENCODING 177
SWIDTH 580 0
DWIDTH 10 0
BBX 9 7 1 3
BITMAP
0800
0800
0800
FF80
0800
0800
FE00
ENDCHAR
STARTCHAR twosuperior
ENCODING 178
SWIDTH 365 0
DWIDTH 7 0
BBX 6 10 0 6
BITMAP
38
4C
0C
08
18
30
C0
6C
18
10
ENDCHAR
STARTCHAR threesuperior
ENCODING 179
SWIDTH 371 0
DWIDTH 7 0
BBX 6 9 1 7
BITMAP
F0
A0
20
38
08
8C
8C
98
70
ENDCHAR
STARTCHAR acute
ENCODING 180
SWIDTH 234 0
DWIDTH 4 0
BBX 2 4 1 14
BITMAP
40
40
80
80
ENDCHAR
STARTCHAR mu
ENCODING 181
SWIDTH 634 0
DWIDTH 11 0
BBX 11 15 1 -6
BITMAP
C000
8600
8200
C300
C300
C340
E740
D960
C0C0
C000
C000
C000
C000
C000
C000
ENDCHAR
STARTCHAR paragraph
ENCODING 182
SWIDTH 707 0
DWIDTH 13 0
BBX 13 22 0 -7
BITMAP
0070
1FC0
7CC0
FC80
FC80
FC80
FC80
7C80
3C80
0C80
0C80
0C80
0CC0
0CC0
0CC0
0CC0
0CC0
0CF0
0C08
0C00
1C00
6000
ENDCHAR
STARTCHAR periodcentered
ENCODING 183
SWIDTH 238 0
DWIDTH 4 0
BBX 3 3 1 5
BITMAP
E0
E0
E0
ENDCHAR
STARTCHAR cedilla
ENCODING 184
SWIDTH 332 0
DWIDTH 6 0
BBX 4 6 1 -4
BITMAP
40
40
70
30
B0
E0
ENDCHAR
STARTCHAR onesuperior
ENCODING 185
SWIDTH 336 0
DWIDTH 6 0
BBX 6 8 0 8
BITMAP
18
10
70
10
10
10
F8
1C
ENDCHAR
STARTCHAR ordmasculine
ENCODING 186
SWIDTH 503 0
DWIDTH 9 0
BBX 8 8 1 6
BITMAP
3C
46
83
83
81
C1
62
3C
ENDCHAR
STARTCHAR guillemotright
ENCODING 187
SWIDTH 778 0
DWIDTH 14 0
BBX 12 17 1 -5
BITMAP
0800
0800
8400
8200
4100
70C0
3C60
0F70
0CC0
1980
3300
2200
4600
4400
8400
0400
0800
ENDCHAR
STARTCHAR onequarter
ENCODING 188
SWIDTH 876 0
DWIDTH 16 0
BBX 16 17 0 0
BITMAP
0008
1808
1010
7010
1020
1040
1090
F890
1D30
0250
0254
049C
08FC
101A
101C
203F
4000
ENDCHAR
STARTCHAR onehalf
ENCODING 189
SWIDTH 762 0
DWIDTH 14 0
BBX 13 18 0 -1
BITMAP
0008
1808
1010
7010
1020
1040
1080
F880
1D70
0298
0218
0410
0830
1060
1180
20D8
4030
0020
ENDCHAR
STARTCHAR threequarters
ENCODING 190
SWIDTH 922 0
DWIDTH 17 0
BBX 15 17 1 0
BITMAP
0008
F008
A010
2010
3820
0840
8C90
8C90
9930
7250
0254
0494
08FC
1018
1018
203E
4000
ENDCHAR
STARTCHAR questiondown
ENCODING 191
SWIDTH 571 0
DWIDTH 10 0
BBX 10 16 0 -2
BITMAP
0E00
0E00
0E00
0000
0800
0400
0400
0800
3000
7380
6780
E3C0
E0C0
E080
7180
3E00
ENDCHAR
STARTCHAR Agrave
ENCODING 192
SWIDTH 784 0
DWIDTH 14 0
BBX 14 22 0 -2
BITMAP
1000
1800
0800
0400
0000
0300
1F00
0300
0580
0580
0980
08C0
08C0
0FE0
10E0
1060
1070
2070
E030
1838
003C
00C0
ENDCHAR
STARTCHAR Aacute
ENCODING 193
SWIDTH 784 0
DWIDTH 14 0
BBX 14 22 0 -2
BITMAP
0100
0200
0200
0400
0000
0300
1F00
0300
0580
0580
0980
08C0
08C0
0FE0
10E0
1060
1070
2070
E030
1838
003C
00C0
ENDCHAR
STARTCHAR Acircumflex
ENCODING 194
SWIDTH 784 0
DWIDTH 14 0
BBX 14 21 0 -2
BITMAP
0200
0300
0480
1840
0300
1F00
0300
0580
0580
0980
08C0
08C0
0FE0
10E0
1060
1070
2070
E030
1838
003C
00C0
ENDCHAR
STARTCHAR Atilde
ENCODING 195
SWIDTH 784 0
DWIDTH 14 0
BBX 14 21 0 -2
BITMAP
0E00
1780
0380
0000
0300
1F00
0300
0580
0580
0980
08C0
08C0
0FE0
10E0
1060
1070
2070
E030
1838
003C
00C0
ENDCHAR
STARTCHAR Adieresis
ENCODING 196
SWIDTH 784 0
DWIDTH 14 0
BBX 14 21 0 -2
BITMAP
0C00
0D80
0D80
0000
0300
1F00
0300
0580
0580
0980
08C0
08C0
0FE0
10E0
1060
1070
2070
E030
1838
003C
00C0
ENDCHAR
STARTCHAR Aring
ENCODING 197
SWIDTH 784 0
DWIDTH 14 0
BBX 14 22 0 -2
BITMAP
0300
0480
0480
0480
0700
0300
1F00
0300
0580
0580
0980
08C0
08C0
0FE0
10E0
1060
1070
2070
E030
1838
003C
00C0
ENDCHAR
STARTCHAR AE
ENCODING 198
SWIDTH 1172 0
DWIDTH 21 0
BBX 21 18 0 -3
BITMAP
0000C0
000FC0
01F840
005880
005880
005880
009880
009880
011F80
011C90
01FC88
021C08
020C18
040C38
040FC0
081C00
181000
FE6000
ENDCHAR
STARTCHAR Ccedilla
ENCODING 199
SWIDTH 742 0
DWIDTH 13 0
BBX 13 22 0 -7
BITMAP
0010
0010
0010
0FF0
3830
7010
6010
E008
E000
E000
E008
E008
E008
7008
7010
3C20
0FC0
0100
0180
0080
04C0
0380
ENDCHAR
STARTCHAR Egrave
ENCODING 200
SWIDTH 557 0
DWIDTH 10 0
BBX 10 22 0 -2
BITMAP
2000
3000
1000
0800
0000
0780
F880
7080
7000
3000
3000
3400
3C00
3400
3400
3000
3000
3040
1040
1080
FF80
0100
ENDCHAR
STARTCHAR Eacute
ENCODING 201
SWIDTH 557 0
DWIDTH 10 0
BBX 10 22 0 -2
BITMAP
0200
0400
0400
0800
0000
0780
F880
7080
7000
3000
3000
3400
3C00
3400
3400
3000
3000
3040
1040
1080
FF80
0100
ENDCHAR
STARTCHAR Ecircumflex
ENCODING 202
SWIDTH 557 0
DWIDTH 10 0
BBX 10 22 0 -2
BITMAP
0400
0C00
1300
2180
0000
0780
F880
7080
7000
3000
3000
3400
3C00
3400
3400
3000
3000
3040
1040
1080
FF80
0100
ENDCHAR
STARTCHAR Edieresis
ENCODING 203
SWIDTH 557 0
DWIDTH 10 0
BBX 10 21 0 -2
BITMAP
1000
3600
1600
0000
0780
F880
7080
7000
3000
3000
3400
3C00
3400
3400
3000
3000
3040
1040
1080
FF80
0100
ENDCHAR
STARTCHAR Igrave
ENCODING 204
SWIDTH 438 0
DWIDTH 8 0
BBX 9 24 0 -3
BITMAP
2000
3000
1000
0800
0000
0000
FF80
3C00
1C00
1800
1800
1800
1800
1800
1800
1800
1800
1800
1000
1000
1000
1800
3E00
C000
ENDCHAR
STARTCHAR Iacute
ENCODING 205
SWIDTH 438 0
DWIDTH 8 0
BBX 9 23 0 -3
BITMAP
0200
0400
0400
0800
0000
FF80
3C00
1C00
1800
1800
1800
1800
1800
1800
1800
1800
1800
1000
1000
1000
1800
3E00
C000
ENDCHAR
STARTCHAR Icircumflex
ENCODING 206
SWIDTH 438 0
DWIDTH 8 0
BBX 9 23 0 -3
BITMAP
0800
1C00
2600
4300
0000
FF80
3C00
1C00
1800
1800
1800
1800
1800
1800
1800
1800
1800
1000
1000
1000
1800
3E00
C000
ENDCHAR
STARTCHAR Idieresis
ENCODING 207
SWIDTH 438 0
DWIDTH 8 0
BBX 9 22 0 -3
BITMAP
2000
3600
2400
0000
FF80
3C00
1C00
1800
1800
1800
1800
1800
1800
1800
1800
1800
1000
1000
1000
1800
3E00
C000
ENDCHAR
STARTCHAR Eth
ENCODING 208
SWIDTH 730 0
DWIDTH 13 0
BBX 13 15 0 -4
BITMAP
7FC0
18F0
1878
1838
1838
1838
7E38
9838
1838
1830
1870
18C0
3F00
2000
C000
ENDCHAR
STARTCHAR Ntilde
ENCODING 209
SWIDTH 799 0
DWIDTH 14 0
BBX 15 21 0 -4
BITMAP
0380
04F0
0060
0000
F83E
1C08
1E08
1708
1388
13C8
11E8
10F0
1070
1030
1010
1010
1000
1000
3000
F800
0400
ENDCHAR
STARTCHAR Ograve
ENCODING 210
SWIDTH 747 0
DWIDTH 13 0
BBX 13 19 0 0
BITMAP
1800
0800
0C00
0400
0000
0000
0F80
30E0
6070
6038
C038
C038
C018
C018
E018
6038
7030
3860
0F80
ENDCHAR
STARTCHAR Oacute
ENCODING 211
SWIDTH 747 0
DWIDTH 13 0
BBX 13 19 0 0
BITMAP
0100
0200
0200
0400
0000
0000
0F80
30E0
6070
6038
C038
C038
C018
C018
E018
6038
7030
3860
0F80
ENDCHAR
STARTCHAR Ocircumflex
ENCODING 212
SWIDTH 747 0
DWIDTH 13 0
BBX 13 19 0 0
BITMAP
0200
0700
0980
10C0
0000
0000
0F80
30E0
6070
6038
C038
C038
C018
C018
E018
6038
7030
3860
0F80
ENDCHAR
STARTCHAR Otilde
ENCODING 213
SWIDTH 747 0
DWIDTH 13 0
BBX 13 18 0 0
BITMAP
0E00
13C0
0180
0000
0000
0F80
30E0
6070
6038
C038
C038
C018
C018
E018
6038
7030
3860
0F80
ENDCHAR
STARTCHAR Odieresis
ENCODING 214
SWIDTH 747 0
DWIDTH 13 0
BBX 13 19 0 0
BITMAP
0C00
0D80
0D80
0000
0000
0000
0F80
30E0
6070
6038
C038
C038
C018
C018
E018
6038
7030
3860
0F80
ENDCHAR
STARTCHAR multiply
ENCODING 215
SWIDTH 541 0
DWIDTH 10 0
BBX 8 11 1 0
BITMAP
01
02
02
44
28
18
24
22
40
80
80
ENDCHAR
STARTCHAR Oslash
ENCODING 216
SWIDTH 747 0
DWIDTH 13 0
BBX 14 16 0 -1
BITMAP
0008
0010
0F90
30E0
6070
6078
C098
C11C
C21C
C41C
E418
6818
7030
3860
2FC0
4000
ENDCHAR
STARTCHAR Ugrave
ENCODING 217
SWIDTH 690 0
DWIDTH 12 0
BBX 13 19 0 1
BITMAP
0400
0600
0200
0100
0000
0200
1E00
F800
39F8
3860
3820
3020
3020
3820
3820
3840
1840
0C40
0780
ENDCHAR
STARTCHAR Uacute
ENCODING 218
SWIDTH 690 0
DWIDTH 12 0
BBX 13 17 0 1
BITMAP
0020
0020
0040
0240
1E00
F800
39F8
3860
3820
3020
3020
3820
3820
3840
1840
0C40
0780
ENDCHAR
STARTCHAR Ucircumflex
ENCODING 219
SWIDTH 690 0
DWIDTH 12 0
BBX 13 18 0 1
BITMAP
0100
0380
04C0
0860
0200
1E00
F800
39F8
3860
3820
3020
3020
3820
3820
3840
1840
0C40
0780
ENDCHAR
STARTCHAR Udieresis
ENCODING 220
SWIDTH 690 0
DWIDTH 12 0
BBX 13 18 0 1
BITMAP
0600
06C0
06C0
0000
0200
1E00
F800
39F8
3860
3820
3020
3020
3820
3820
3840
1840
0C40
0780
ENDCHAR
STARTCHAR Yacute
ENCODING 221
SWIDTH 796 0
DWIDTH 14 0
BBX 16 22 0 -2
BITMAP
0020
0020
0040
0040
0400
F810
380F
1C08
0C10
0620
03C0
0380
0180
0180
0180
0180
0180
0180
0180
0380
0FC0
0020
ENDCHAR
STARTCHAR Thorn
ENCODING 222
SWIDTH 479 0
DWIDTH 9 0
BBX 9 18 0 -1
BITMAP
7C00
3000
3000
3000
3E00
3300
2380
2180
2180
2300
3E00
3000
3000
3000
3000
3000
7000
F800
ENDCHAR
STARTCHAR germandbls
ENCODING 223
SWIDTH 591 0
DWIDTH 11 0
BBX 11 19 -1 -2
BITMAP
3C00
2600
4200
4200
4200
4200
4400
6800
6F00
33C0
20E0
30E0
3060
3060
1820
1A20
1B20
3BC0
C000
ENDCHAR
STARTCHAR agrave
ENCODING 224
SWIDTH 527 0
DWIDTH 10 0
BBX 10 17 0 -1
BITMAP
4000
6000
2000
1000
0000
3800
4C00
4600
6600
6600
0600
7E00
C700
C300
FF40
7340
01C0
ENDCHAR
STARTCHAR aacute
ENCODING 225
SWIDTH 527 0
DWIDTH 10 0
BBX 10 17 0 -1
BITMAP
0400
0400
0800
0800
0000
3800
4C00
4600
6600
6600
0600
7E00
C700
C300
FF40
7340
01C0
ENDCHAR
STARTCHAR acircumflex
ENCODING 226
SWIDTH 527 0
DWIDTH 10 0
BBX 10 16 0 -1
BITMAP
0800
1C00
2600
4300
3800
4C00
4600
6600
6600
0600
7E00
C700
C300
FF40
7340
01C0
ENDCHAR
STARTCHAR atilde
ENCODING 227
SWIDTH 527 0
DWIDTH 10 0
BBX 10 15 0 -1
BITMAP
3800
4F00
0600
3800
4C00
4600
6600
6600
0600
7E00
C700
C300
FF40
7340
01C0
ENDCHAR
STARTCHAR adieresis
ENCODING 228
SWIDTH 527 0
DWIDTH 10 0
BBX 10 15 0 -1
BITMAP
3600
3600
0000
3800
4C00
4600
6600
6600
0600
7E00
C700
C300
FF40
7340
01C0
ENDCHAR
STARTCHAR aring
ENCODING 229
SWIDTH 527 0
DWIDTH 10 0
BBX 10 18 0 -1
BITMAP
1C00
2400
2400
2400
1C00
0000
3800
4C00
4600
6600
6600
0600
7E00
C700
C300
FF40
7340
01C0
ENDCHAR
STARTCHAR ae
ENCODING 230
SWIDTH 700 0
DWIDTH 13 0
BBX 12 12 0 -1
BITMAP
01E0
7220
5C30
CC20
4C60
3FC0
4C00
CC10
8E10
CF10
F7F0
73E0
ENDCHAR
STARTCHAR ccedilla
ENCODING 231
SWIDTH 437 0
DWIDTH 8 0
BBX 7 15 0 -4
BITMAP
3C
4E
4E
C0
80
C2
C2
C2
62
3C
10
18
04
24
18
ENDCHAR
STARTCHAR egrave
ENCODING 232
SWIDTH 434 0
DWIDTH 8 0
BBX 7 15 0 1
BITMAP
60
20
30
10
00
1C
66
42
C2
C6
FC
C2
C2
62
3C
ENDCHAR
STARTCHAR eacute
ENCODING 233
SWIDTH 434 0
DWIDTH 8 0
BBX 7 15 0 1
BITMAP
04
04
08
08
00
1C
66
42
C2
C6
FC
C2
C2
62
3C
ENDCHAR
STARTCHAR ecircumflex
ENCODING 234
SWIDTH 434 0
DWIDTH 8 0
BBX 8 15 0 1
BITMAP
08
1C
26
43
00
1C
66
42
C2
C6
FC
C2
C2
62
3C
ENDCHAR
STARTCHAR edieresis
ENCODING 235
SWIDTH 434 0
DWIDTH 8 0
BBX 8 13 0 1
BITMAP
12
3F
00
1C
66
42
C2
C6
FC
C2
C2
62
3C
ENDCHAR
STARTCHAR igrave
ENCODING 236
SWIDTH 301 0
DWIDTH 5 0
BBX 6 15 -1 2
BITMAP
C0
40
20
20
00
08
38
18
18
18
18
18
18
18
3C
ENDCHAR
STARTCHAR iacute
ENCODING 237
SWIDTH 301 0
DWIDTH 5 0
BBX 4 15 1 2
BITMAP
20
20
40
40
00
20
E0
60
60
60
60
60
60
60
F0
ENDCHAR
STARTCHAR icircumflex
ENCODING 238
SWIDTH 301 0
DWIDTH 5 0
BBX 7 14 -1 2
BITMAP
10
18
6C
82
08
38
18
18
18
18
18
18
18
3C
ENDCHAR
STARTCHAR idieresis
ENCODING 239
SWIDTH 301 0
DWIDTH 5 0
BBX 5 13 1 2
BITMAP
D8
D8
00
20
E0
60
60
60
60
60
60
60
F0
ENDCHAR
STARTCHAR eth
ENCODING 240
SWIDTH 476 0
DWIDTH 9 0
BBX 9 16 -1 -2
BITMAP
0200
0200
3C00
4600
8B00
1100
0180
0180
0F80
1180
3080
3080
3080
3080
1880
0F00
ENDCHAR
STARTCHAR ntilde
ENCODING 241
SWIDTH 584 0
DWIDTH 11 0
BBX 11 15 0 0
BITMAP
0E00
13C0
0180
2000
7380
BDC0
38C0
30C0
10C0
10C0
10C0
1080
1B80
7CC0
0060
ENDCHAR
STARTCHAR ograve
ENCODING 242
SWIDTH 400 0
DWIDTH 7 0
BBX 12 15 0 3
BITMAP
0030
0030
4010
6010
2020
1020
0040
0080
2F00
6400
C600
C600
C600
CE00
7800
ENDCHAR
STARTCHAR oacute
ENCODING 243
SWIDTH 400 0
DWIDTH 7 0
BBX 12 15 0 3
BITMAP
0030
0030
0410
0410
0820
0820
0040
0080
2F00
6400
C600
C600
C600
CE00
7800
ENDCHAR
STARTCHAR ocircumflex
ENCODING 244
SWIDTH 400 0
DWIDTH 7 0
BBX 12 15 0 3
BITMAP
0030
0030
0010
1010
1820
2620
4240
0080
2F00
6400
C600
C600
C600
CE00
7800
ENDCHAR
STARTCHAR otilde
ENCODING 245
SWIDTH 400 0
DWIDTH 7 0
BBX 12 15 0 3
BITMAP
0030
0030
0010
0010
0020
3820
4F40
0680
2F00
6400
C600
C600
C600
CE00
7800
ENDCHAR
STARTCHAR odieresis
ENCODING 246
SWIDTH 400 0
DWIDTH 7 0
BBX 12 15 0 3
BITMAP
0030
0030
0010
0010
0020
3620
3640
0080
2F00
6400
C600
C600
C600
CE00
7800
ENDCHAR
STARTCHAR divide
ENCODING 247
SWIDTH 592 0
DWIDTH 11 0
BBX 9 7 1 2
BITMAP
1800
1800
0000
FF80
0000
1800
1800
ENDCHAR
STARTCHAR oslash
ENCODING 248
SWIDTH 396 0
DWIDTH 7 0
BBX 7 12 0 0
BITMAP
08
10
38
5C
D6
E6
E6
EC
78
40
40
40
ENDCHAR
STARTCHAR ugrave
ENCODING 249
SWIDTH 744 0
DWIDTH 13 0
BBX 13 15 1 0
BITMAP
1000
1800
0800
0400
0000
0040
23C0
60C0
F0C0
30C0
30C0
30C0
3978
1F00
0E00
ENDCHAR
STARTCHAR uacute
ENCODING 250
SWIDTH 744 0
DWIDTH 13 0
BBX 13 15 1 0
BITMAP
0200
0400
0400
0800
0000
0040
23C0
60C0
F0C0
30C0
30C0
30C0
3978
1F00
0E00
ENDCHAR
STARTCHAR ucircumflex
ENCODING 251
SWIDTH 744 0
DWIDTH 13 0
BBX 13 15 1 0
BITMAP
0800
0C00
3600
4100
0000
0040
23C0
60C0
F0C0
30C0
30C0
30C0
3978
1F00
0E00
ENDCHAR
STARTCHAR udieresis
ENCODING 252
SWIDTH 744 0
DWIDTH 13 0
BBX 13 13 1 0
BITMAP
0D80
0900
0000
0040
23C0
60C0
F0C0
30C0
30C0
30C0
3978
1F00
0E00
ENDCHAR
STARTCHAR yacute
ENCODING 253
SWIDTH 659 0
DWIDTH 12 0
BBX 11 21 1 -8
BITMAP
0100
0200
0200
0400
1800
73E0
E0C0
60C0
60C0
60C0
30C0
33C0
1E80
0080
0080
0080
3900
5900
5B00
4600
3C00
ENDCHAR
STARTCHAR thorn
ENCODING 254
SWIDTH 514 0
DWIDTH 9 0
BBX 10 27 -1 -12
BITMAP
1000
6000
E000
6000
2000
2000
2000
2E00
3300
2180
2180
2180
31C0
3180
3380
3F00
3000
3000
3000
3000
3000
3000
3000
3000
3000
F800
0600
ENDCHAR
STARTCHAR ydieresis
ENCODING 255
SWIDTH 659 0
DWIDTH 12 0
BBX 11 21 1 -8
BITMAP
0D80
0D80
0000
0000
1800
73E0
E0C0
60C0
60C0
60C0
30C0
33C0
1E80
0080
0080
0080
3900
5900
5B00
4600
3C00
ENDCHAR
STARTCHAR dotlessi
ENCODING 305
SWIDTH 301 0
DWIDTH 5 0
BBX 4 10 1 2
BITMAP
20
E0
60
60
60
60
60
60
60
F0
ENDCHAR
STARTCHAR OE
ENCODING 338
SWIDTH 1132 0
DWIDTH 20 0
BBX 21 18 0 -3
BITMAP
000060
0F9FE0
386C20
603C20
601C00
E01C00
C00C40
C00C40
E00FC0
E00C40
E00C40
700C00
381C08
1C2E08
0FCE08
000E38
000FF8
003000
ENDCHAR
STARTCHAR oe
ENCODING 339
SWIDTH 798 0
DWIDTH 14 0
BBX 14 8 0 2
BITMAP
3870
4E88
C798
C3F4
C384
C384
63C8
3CF0
ENDCHAR
STARTCHAR circumflex
ENCODING 710
SWIDTH 483 0
DWIDTH 9 0
BBX 7 4 1 12
BITMAP
10
38
4C
86
ENDCHAR
STARTCHAR caron
ENCODING 711
SWIDTH 428 0
DWIDTH 8 0
BBX 6 5 1 12
BITMAP
04
88
50
20
20
ENDCHAR
STARTCHAR ring
ENCODING 730
SWIDTH 330 0
DWIDTH 6 0
BBX 4 5 1 15
BITMAP
60
90
90
90
60
ENDCHAR
STARTCHAR tilde
ENCODING 732
SWIDTH 433 0
DWIDTH 8 0
BBX 6 3 1 13
BITMAP
E0
BC
18
ENDCHAR
STARTCHAR mu.dup1
ENCODING 956
SWIDTH 634 0
DWIDTH 11 0
BBX 11 15 1 -6
BITMAP
C000
8600
8200
C300
C300
C340
E740
D960
C0C0
C000
C000
C000
C000
C000
C000
ENDCHAR
STARTCHAR endash
ENCODING 8211
SWIDTH 436 0
DWIDTH 8 0
BBX 6 1 1 3
BITMAP
FC
ENDCHAR
STARTCHAR emdash
ENCODING 8212
SWIDTH 651 0
DWIDTH 12 0
BBX 10 2 1 3
BITMAP
0FC0
F000
ENDCHAR
STARTCHAR quoteleft
ENCODING 8216
SWIDTH 287 0
DWIDTH 5 0
BBX 3 6 1 9
BITMAP
20
40
C0
E0
E0
E0
ENDCHAR
STARTCHAR quoteright
ENCODING 8217
SWIDTH 291 0
DWIDTH 5 0
BBX 3 6 1 8
BITMAP
C0
E0
E0
20
20
40
ENDCHAR
STARTCHAR quotesinglbase
ENCODING 8218
SWIDTH 272 0
DWIDTH 5 0
BBX 3 6 1 -3
BITMAP
E0
E0
60
20
40
40
ENDCHAR
STARTCHAR quotedblleft
ENCODING 8220
SWIDTH 445 0
DWIDTH 8 0
BBX 7 7 1 8
BITMAP
30
46
44
CC
EE
EE
E0
ENDCHAR
STARTCHAR quotedblright
ENCODING 8221
SWIDTH 444 0
DWIDTH 8 0
BBX 6 7 1 8
BITMAP
E0
FC
7C
3C
4C
48
30
ENDCHAR
STARTCHAR quotedblbase
ENCODING 8222
SWIDTH 482 0
DWIDTH 9 0
BBX 7 7 1 -5
BITMAP
E0
EE
EE
66
24
44
08
ENDCHAR
STARTCHAR bullet
ENCODING 8226
SWIDTH 351 0
DWIDTH 6 0
BBX 5 4 1 5
BITMAP
70
F8
F8
70
ENDCHAR
STARTCHAR guilsinglleft
ENCODING 8249
SWIDTH 465 0
DWIDTH 8 0
BBX 7 11 1 -1
BITMAP
08
08
10
10
20
E0
60
30
18
0C
06
ENDCHAR
STARTCHAR guilsinglright
ENCODING 8250
SWIDTH 449 0
DWIDTH 8 0
BBX 6 12 1 -2
BITMAP
80
40
40
30
18
1C
30
20
40
40
80
80
ENDCHAR
STARTCHAR fraction
ENCODING 8260
SWIDTH 406 0
DWIDTH 7 0
BBX 12 17 -3 0
BITMAP
0010
0010
0020
0020
0040
0080
0080
0100
0200
0400
0400
0800
1000
2000
2000
4000
8000
ENDCHAR
STARTCHAR foursuperior
ENCODING 8308
SWIDTH 473 0
DWIDTH 9 0
BBX 8 10 0 7
BITMAP
08
08
18
28
4A
4A
7E
8C
0C
1F
ENDCHAR
STARTCHAR Euro
ENCODING 8364
SWIDTH 799 0
DWIDTH 14 0
BBX 15 15 0 -1
BITMAP
0002
03F2
071C
0C0C
1C08
1808
3980
3E00
FF00
7800
B810
1810
1C10
0E20
07C0
ENDCHAR
STARTCHAR minus
ENCODING 8722
SWIDTH 436 0
DWIDTH 8 0
BBX 6 1 1 3
BITMAP
FC
ENDCHAR
STARTCHAR f_f
ENCODING 64256
SWIDTH 467 0
DWIDTH 8 0
BBX 10 27 1 -6
BITMAP
0C00
3E00
2600
4380
44C0
44C0
49C0
49C0
4800
4800
4800
5F00
E800
4C00
4C00
6C00
6400
6400
6600
6600
2780
3600
3800
3000
3000
3800
FE00
ENDCHAR
STARTCHAR .notdef
ENCODING -1
SWIDTH 270 0
DWIDTH 5 0
BBX 3 11 1 0
BITMAP
E0
A0
A0
A0
A0
A0
A0
A0
A0
A0
E0
ENDCHAR
STARTCHAR .null
ENCODING -1
SWIDTH 0 0
DWIDTH 0 0
BBX 1 1 0 0
BITMAP
00
ENDCHAR
STARTCHAR nonmarkingreturn
ENCODING -1
SWIDTH 270 0
DWIDTH 5 0
BBX 1 1 0 0
BITMAP
00
ENDCHAR
STARTCHAR dieresis.case
ENCODING -1
SWIDTH 393 0
DWIDTH 7 0
BBX 5 3 1 14
BITMAP
C0
D8
D8
ENDCHAR
STARTCHAR o.cmp
ENCODING -1
SWIDTH 400 0
DWIDTH 7 0
BBX 12 15 0 3
BITMAP
0030
0030
0010
0010
0020
0020
0040
0080
2F00
6400
C600
C600
C600
CE00
7800
ENDCHAR
STARTCHAR n_n
ENCODING -1
SWIDTH 1024 0
DWIDTH 18 0
BBX 18 12 0 0
BITMAP
200000
338000
FDB800
38DB80
30DCC0
30D8C0
10D8C0
10D8C0
1098C0
18BDC0
7BC3C0
046040
ENDCHAR
STARTCHAR a_a
ENCODING -1
SWIDTH 911 0
DWIDTH 16 0
BBX 16 13 0 -1
BITMAP
00F0
0098
0188
71CC
C80C
C9FC
CB0C
3FCC
EF4C
CF5C
D5EC
738D
0007
ENDCHAR
STARTCHAR t_h
ENCODING -1
SWIDTH 854 0
DWIDTH 15 0
BBX 16 23 -1 -4
BITMAP
00C0
07C0
00C0
00C0
0480
0480
1C80
FFE0
1880
18BC
18C6
18C3
1983
199B
199B
0993
0D93
03E2
0186
03E6
040E
001F
0001
ENDCHAR
STARTCHAR s_s
ENCODING -1
SWIDTH 654 0
DWIDTH 12 0
BBX 12 16 -1 -3
BITMAP
0100
0E10
1AF0
1390
1910
0D80
0680
03C0
4160
4D60
4D30
B330
1E30
0830
0460
03C0
ENDCHAR
STARTCHAR t_t
ENCODING -1
SWIDTH 569 0
DWIDTH 10 0
BBX 11 16 0 -2
BITMAP
0200
0E00
0E40
3780
FE00
3600
3600
3600
3600
36C0
3660
3340
31C0
1180
19C0
0780
ENDCHAR
STARTCHAR e_e
ENCODING -1
SWIDTH 782 0
DWIDTH 14 0
BBX 14 10 0 0
BITMAP
38F0
6590
C710
C718
CB10
F318
4324
71C4
1FC8
0078
ENDCHAR
STARTCHAR o_o
ENCODING -1
SWIDTH 751 0
DWIDTH 14 0
BBX 18 15 0 1
BITMAP
0000C0
0000C0
000040
000040
000080
000080
000100
3C0200
63BC00
C31000
C31800
C31800
C33000
47E000
3C0000
ENDCHAR
STARTCHAR l_l
ENCODING -1
SWIDTH 573 0
DWIDTH 10 0
BBX 11 17 -1 -2
BITMAP
1180
3780
F180
3180
3180
3180
3180
3180
3180
3180
3180
3180
3180
31C0
33E0
F400
1C00
ENDCHAR
STARTCHAR z_z
ENCODING -1
SWIDTH 875 0
DWIDTH 16 0
BBX 16 13 0 -1
BITMAP
0400
07E0
0840
7EC0
8CC0
9D80
1980
3310
3313
67F7
C003
FF02
00FC
ENDCHAR
STARTCHAR j_j
ENCODING -1
SWIDTH 577 0
DWIDTH 10 0
BBX 12 24 -2 -11
BITMAP
00E0
00E0
06E0
0640
01E0
1FE0
0760
03A0
03B0
03B0
01B0
0190
0190
0190
0190
0190
7190
7110
C110
8210
4620
3B20
0320
03C0
ENDCHAR
STARTCHAR f_b
ENCODING -1
SWIDTH 731 0
DWIDTH 13 0
BBX 14 23 -1 -3
BITMAP
0380
0480
08C0
09C0
0B80
1B80
1980
1B80
7C80
9880
1880
1880
1880
1880
18F8
188C
188C
188C
189C
19F8
1A00
1F00
6000
ENDCHAR
STARTCHAR f_k
ENCODING -1
SWIDTH 708 0
DWIDTH 13 0
BBX 12 20 1 -2
BITMAP
0800
1800
7F00
1D80
2F80
2F00
4C00
4C00
CD00
4CE0
4C80
4D00
4F00
4F00
4D20
4D10
4C90
4C70
CE00
3F80
ENDCHAR
STARTCHAR f_h
ENCODING -1
SWIDTH 873 0
DWIDTH 16 0
BBX 17 23 -1 -3
BITMAP
070000
048000
088000
0B8000
0BA000
18E000
1BC000
1AC000
1C4000
F84000
18C000
18C000
18C000
18DC00
18E600
18C600
18C600
18C600
18C600
19CF80
1BE000
1F0000
600000
ENDCHAR
ENDFONT
